<?xml version="1.0" encoding="UTF-8" standalone="no"?>
<!DOCTYPE svg PUBLIC "-//W3C//DTD SVG 1.1//EN" "http://www.w3.org/Graphics/SVG/1.1/DTD/svg11.dtd">
<svg width="100%" height="100%" viewBox="0 0 2481 1749" version="1.1" xmlns="http://www.w3.org/2000/svg" xmlns:xlink="http://www.w3.org/1999/xlink" xml:space="preserve" xmlns:serif="http://www.serif.com/" style="fill-rule:evenodd;clip-rule:evenodd;stroke-linecap:round;stroke-linejoin:round;stroke-miterlimit:1.5;">
    <g transform="matrix(2.18751,0,0,2.18751,1076.09,346.148)">
        <g transform="matrix(4.16667,0,0,4.16667,0,0)">
            <circle cx="18" cy="17.018" r="17" style="fill:rgb(255,203,76);"/>
        </g>
        <g transform="matrix(4.16667,0,0,4.16667,0,0)">
            <path d="M14.524,21.036C14.373,20.918 14.264,20.756 14.212,20.572C14.188,20.494 14.175,20.413 14.175,20.332C14.175,19.958 14.437,19.632 14.802,19.551C19.33,18.53 22.379,20.914 22.508,21.016C22.892,21.322 22.967,21.861 22.681,22.221C22.395,22.579 21.853,22.622 21.47,22.318C21.36,22.234 18.947,20.395 15.288,21.22C15.019,21.277 14.738,21.21 14.524,21.036" style="fill:rgb(101,71,27);fill-rule:nonzero;"/>
        </g>
        <g transform="matrix(4.16667,0,0,4.16667,0,0)">
            <ellipse cx="13.119" cy="11.174" rx="2.125" ry="2.656" style="fill:rgb(101,71,27);"/>
        </g>
        <g transform="matrix(4.16667,0,0,4.16667,0,0)">
            <ellipse cx="24.375" cy="12.236" rx="2.125" ry="2.656" style="fill:rgb(101,71,27);"/>
        </g>
        <g transform="matrix(4.16667,0,0,4.16667,0,0)">
            <path d="M17.276,35.149C17.276,35.149 18.541,34.738 18.705,33.797C18.878,32.825 18.081,32.63 18.081,32.63C18.081,32.63 19.122,32.422 19.253,31.254C19.376,30.153 18.392,29.891 18.392,29.891C18.392,29.891 19.362,29.491 19.408,28.352C19.446,27.393 18.413,26.924 18.413,26.924C18.413,26.924 23.451,25.703 23.969,25.583C24.485,25.463 25.289,24.968 25.038,23.889C24.789,22.809 23.834,22.771 23.341,22.886C22.848,23.001 16.597,24.452 14.441,24.954L13.002,25.288C12.462,25.415 12.217,25.178 12.598,24.776C13.106,24.24 13.431,23.647 13.544,22.663C13.663,21.628 13.312,20.35 13.111,19.854C12.737,18.933 12.106,18.205 11.377,17.955C10.24,17.565 9.432,18.276 9.835,19.516C10.439,21.37 10.043,22.891 9.002,23.809C6.553,25.966 5.414,27.504 6.172,30.782C7,34.357 10.549,36.658 14.124,35.83L17.276,35.149Z" style="fill:rgb(241,144,32);fill-rule:nonzero;"/>
        </g>
        <g transform="matrix(4.16667,0,0,4.16667,0,0)">
            <path d="M9.296,6.351C9.128,6.261 8.991,6.122 8.905,5.952C8.843,5.836 8.811,5.707 8.811,5.576C8.811,5.256 9.003,4.965 9.298,4.84C13.564,3.009 16.997,4.797 17.141,4.874C17.574,5.105 17.749,5.621 17.532,6.028C17.316,6.433 16.792,6.574 16.359,6.346C16.236,6.283 13.527,4.914 10.081,6.393C9.826,6.497 9.538,6.482 9.296,6.351M21.431,10.101C21.269,10.001 21.143,9.852 21.069,9.677C21.023,9.574 20.999,9.462 20.999,9.349C20.999,9.009 21.216,8.704 21.537,8.593C25.918,7.057 29.222,9.073 29.36,9.16C29.775,9.42 29.915,9.947 29.672,10.338C29.43,10.728 28.896,10.833 28.481,10.576C28.361,10.504 25.754,8.955 22.214,10.197C21.952,10.284 21.664,10.249 21.431,10.101" style="fill:rgb(101,71,27);fill-rule:nonzero;"/>
        </g>
    </g>
    <g transform="matrix(1.21019,0,0,1,-66.1407,-60)">
        <path d="M124.456,89.104C134.75,163.212 330.813,293.774 465.437,115.938C451.745,305.82 806.247,370.686 852.742,152.088C915.539,344.81 1222.18,367.331 1271.09,142.543C1319,380.903 1698.27,310.733 1683.73,102.843C1785.7,277.937 2042.75,203.599 2066.52,75.644" style="fill:none;stroke:black;stroke-width:13.14px;"/>
    </g>
    <g transform="matrix(1,0,0,1,-124.406,-59.8638)">
        <circle cx="1595.19" cy="477.816" r="25.678" style="fill:none;stroke:black;stroke-width:14.58px;"/>
    </g>
    <g transform="matrix(1.69314,0,0,1.69314,-1128.45,-481.53)">
        <circle cx="1595.19" cy="477.816" r="25.678" style="fill:none;stroke:black;stroke-width:8.61px;"/>
    </g>
</svg>
