<?xml version="1.0" encoding="UTF-8"?>
<svg xmlns="http://www.w3.org/2000/svg" xmlns:xlink="http://www.w3.org/1999/xlink" width="32pt" height="32pt" viewBox="0 0 32 32" version="1.1">
<g id="surface6007743">
<path style=" stroke:none;fill-rule:nonzero;fill:rgb(85.09804%,66.274512%,19.607843%);fill-opacity:1;" d="M 16 3 C 8.832031 3 3 8.832031 3 16 C 3 23.167969 8.832031 29 16 29 C 23.167969 29 29 23.167969 29 16 C 29 8.832031 23.167969 3 16 3 Z M 16 5 C 22.085938 5 27 9.914062 27 16 C 27 22.085938 22.085938 27 16 27 C 9.914062 27 5 22.085938 5 16 C 5 9.914062 9.914062 5 16 5 Z M 11 8 C 10.449219 8 10 8.449219 10 9 C 10 9.550781 10.449219 10 11 10 C 11.550781 10 12 9.550781 12 9 C 12 8.449219 11.550781 8 11 8 Z M 10 11 L 10 22 L 12 22 L 12 11 Z M 14 11 L 14 22 L 18.5 22 C 21.527344 22 24 19.527344 24 16.5 C 24 13.472656 21.527344 11 18.5 11 Z M 16 13 L 18.5 13 C 20.445312 13 22 14.554688 22 16.5 C 22 18.445312 20.445312 20 18.5 20 L 16 20 Z M 16 13 "/>
</g>
</svg>
